# xmcd
#
# Track frame offsets:
#	150
#	14319
#	29087
#	44230
#	60531
#	75364
#	94674
#	106428
#	121197
#	133425
#	150620
#	168961
#	184682
#	202453
#	215756
#	232670
#	247723
#
# Disc length: 3563 seconds
#
# Revision: 1
# Processed by: cddbd v1.5.1PL2 Copyright (c) Steve Scherf et al.
# Submitted via: audiograbber 1.83.01
#
DISCID=e90de911
DTITLE=Various Artist - De country gids-cd
DYEAR=1900
DGENRE=
TTITLE0=Black Hills Country Band - Next time around
TTITLE1=Helen Hayes - Just like the weather
TTITLE2=Chuck Berlinger - Never drive alone
TTITLE3=Something Else - What a crying shame
TTITLE4=Left Hand George - A place to be
TTITLE5=Shayenne - My strongest weakness
TTITLE6=Swamp - Grand coteau
TTITLE7=Mike de Rijcke - Wish you were here tonight
TTITLE8=Jenny Kaye - Ghostriders in the sky
TTITLE9=Steel Horse - Seven spanish angels
TTITLE10=Tekielja - Bist vol
TTITLE11=Except-2 - Lost love
TTITLE12=Relax - rhythm of your heartbeat
TTITLE13=Spruce Pine - the farmer
TTITLE14=Eric Pluylaar Square Dance Caller - That's the thing about love
TTITLE15=Ben Ieven - Limburg
TTITLE16=Gerard Rutger Bulsman - Maegien uut Sarajevo
EXTD=
EXTT0=
EXTT1=
EXTT2=
EXTT3=
EXTT4=
EXTT5=
EXTT6=
EXTT7=
EXTT8=
EXTT9=
EXTT10=
EXTT11=
EXTT12=
EXTT13=
EXTT14=
EXTT15=
EXTT16=
PLAYORDER=
